<svg xmlns="http://www.w3.org/2000/svg" xmlns:xlink="http://www.w3.org/1999/xlink" viewBox="0 0 164.36 124.89"><defs><style>.cls-1{isolation:isolate;}.cls-2{fill:url(#linear-gradient);}.cls-3,.cls-5,.cls-6{fill:#a0c7f0;}.cls-3{opacity:0.69;}.cls-15,.cls-21,.cls-26,.cls-29,.cls-4{fill:none;}.cls-21,.cls-29,.cls-4{stroke:#fff;}.cls-26,.cls-29,.cls-4{stroke-miterlimit:10;}.cls-4{opacity:0.44;}.cls-5{opacity:0.28;}.cls-6{opacity:0.34;}.cls-7{fill:url(#linear-gradient-2);}.cls-8{fill:url(#linear-gradient-3);}.cls-9{fill:url(#linear-gradient-4);}.cls-10,.cls-16,.cls-22,.cls-23,.cls-25{fill:#fff;}.cls-10,.cls-23{opacity:0.76;}.cls-11{opacity:0.3;}.cls-11,.cls-14,.cls-20{mix-blend-mode:multiply;}.cls-12,.cls-13,.cls-14{fill:#b2b2ed;}.cls-12,.cls-16{opacity:0.24;}.cls-14,.cls-20{opacity:0.31;}.cls-15{stroke:#b2b2ed;}.cls-15,.cls-21{stroke-linecap:round;stroke-linejoin:round;opacity:0.43;}.cls-17{fill:url(#linear-gradient-5);}.cls-18{fill:url(#linear-gradient-6);}.cls-19{fill:url(#linear-gradient-7);}.cls-20{fill:url(#linear-gradient-8);}.cls-23{mix-blend-mode:screen;}.cls-24{fill:url(#linear-gradient-9);}.cls-25{opacity:0.66;}.cls-26{stroke:#ff9a40;}.cls-27{opacity:0.39;fill:url(#linear-gradient-10);}.cls-28{fill:url(#linear-gradient-11);}.cls-29{stroke-width:0.75px;}</style><linearGradient id="linear-gradient" x1="-2439.78" y1="32.54" x2="-2382.42" y2="32.54" gradientTransform="matrix(-1, 0.04, 0.04, 1, -2276.21, 89.26)" gradientUnits="userSpaceOnUse"><stop offset="0" stop-color="#6ac2ff"/><stop offset="1" stop-color="#1b9cff"/></linearGradient><linearGradient id="linear-gradient-2" y1="83.51" x2="78.1" y2="83.51" gradientUnits="userSpaceOnUse"><stop offset="0" stop-color="#fcdb21"/><stop offset="1" stop-color="#ff9a40"/></linearGradient><linearGradient id="linear-gradient-3" x1="78.1" y1="87.9" x2="141.5" y2="87.9" xlink:href="#linear-gradient-2"/><linearGradient id="linear-gradient-4" x1="-63" y1="67.89" x2="78.5" y2="67.89" gradientUnits="userSpaceOnUse"><stop offset="0" stop-color="#fcdb21"/><stop offset="1" stop-color="#ff8340"/></linearGradient><linearGradient id="linear-gradient-5" x1="139.5" y1="47.88" x2="165.99" y2="47.88" xlink:href="#linear-gradient-2"/><linearGradient id="linear-gradient-6" x1="132.13" y1="48.68" x2="158.63" y2="48.68" xlink:href="#linear-gradient-2"/><linearGradient id="linear-gradient-7" x1="148.6" y1="68.92" x2="155.95" y2="68.92" xlink:href="#linear-gradient-2"/><linearGradient id="linear-gradient-8" x1="148.7" y1="64.27" x2="152.82" y2="64.27" xlink:href="#linear-gradient-2"/><linearGradient id="linear-gradient-9" x1="55.43" y1="71.62" x2="73.91" y2="71.62" xlink:href="#linear-gradient-2"/><linearGradient id="linear-gradient-10" x1="78.1" y1="75.39" x2="103.53" y2="75.39" xlink:href="#linear-gradient-2"/><linearGradient id="linear-gradient-11" x1="81.2" y1="75.39" x2="103.68" y2="75.39" xlink:href="#linear-gradient-2"/></defs><title>Credit Underwriting Suite</title><g class="cls-1"><g id="Layer_2" data-name="Layer 2"><g id="Layer_1-2" data-name="Layer 1"><path class="cls-2" d="M108.07.26l53.63,27a2.37,2.37,0,0,1,1.3,2l1.31,35.86a2.37,2.37,0,0,1-3.5,2.17L121.28,46l-4.78,6.83-3.07-11.19-6.34-3.43a2.37,2.37,0,0,1-1.24-2L104.63,2.46A2.37,2.37,0,0,1,108.07.26Z"/><path class="cls-3" d="M116.81,37l-4.17-2.26a1.56,1.56,0,0,1-.82-1.32L111,11.14a1.56,1.56,0,0,1,2.27-1.45L148.6,27.48a1.56,1.56,0,0,1,.86,1.34l.86,23.62A1.56,1.56,0,0,1,148,53.87l-26-14Z"/><path class="cls-4" d="M120.83,35.47l-3-1.61a1.11,1.11,0,0,1-.58-.94l-.58-15.81a1.11,1.11,0,0,1,1.61-1L143.4,28.73a1.11,1.11,0,0,1,.61,1l.61,16.78a1.11,1.11,0,0,1-1.64,1l-18.49-10Z"/><polygon id="_Path_" data-name="&lt;Path&gt;" class="cls-5" points="0 88.33 63.4 60.54 141.5 97.1 78.1 124.89 0 88.33"/><polygon id="_Path_2" data-name="&lt;Path&gt;" class="cls-6" points="0 76.89 63.4 49.11 141.5 85.67 78.1 113.46 0 76.89"/><path id="_Path_3" data-name="&lt;Path&gt;" class="cls-7" d="M78.1,103.51,1,66.31a1.94,1.94,0,0,1-1-1.65V63.5l78.1,36.56"/><path id="_Path_4" data-name="&lt;Path&gt;" class="cls-8" d="M78.1,103.51,140.86,74.9a1.25,1.25,0,0,0,.64-1.19V72.28L78.1,100.07Z"/><polygon id="_Path_5" data-name="&lt;Path&gt;" class="cls-9" points="0 63.5 63.4 35.72 141.5 72.28 78.1 100.07 0 63.5"/><polygon id="_Path_6" data-name="&lt;Path&gt;" class="cls-10" points="43.04 71.61 80.05 55.39 118.14 72.19 81.13 88.41 43.04 71.61"/><g id="_Group_" data-name="&lt;Group&gt;"><g class="cls-11"><path id="_Compound_Path_" data-name="&lt;Compound Path&gt;" class="cls-12" d="M158.62,59.41c-4.92,3.5-12.26,1.34-16.4-4.82s-3.5-14,1.43-17.49,12.26-1.34,16.4,4.82S163.55,55.91,158.62,59.41Z"/><path id="_Compound_Path_2" data-name="&lt;Compound Path&gt;" class="cls-13" d="M161.27,40.86c-4.7-6.8-13.05-9.17-18.66-5.29S136.26,48.1,141,54.9s13.05,9.17,18.66,5.29S166,47.66,161.27,40.86Zm-2.69,17.83C153.66,62.1,146.32,60,142.2,54s-3.47-13.57,1.45-17,12.27-1.32,16.39,4.65S163.51,55.29,158.59,58.69Z"/><path id="_Compound_Path_3" data-name="&lt;Compound Path&gt;" class="cls-13" d="M160.54,41.66c-4.7-6.8-13.05-9.17-18.66-5.29s-6.35,12.53-1.65,19.33,13.05,9.17,18.66,5.29S165.23,48.46,160.54,41.66Zm-2.69,17.83c-4.93,3.4-12.27,1.32-16.39-4.65s-3.47-13.57,1.45-17,12.27-1.32,16.39,4.65S162.78,56.09,157.85,59.49Z"/><path id="_Path_7" data-name="&lt;Path&gt;" class="cls-13" d="M159.75,76.4h0a1.7,1.7,0,0,1-2.11-1.13l-4-12.92,3.25-1,4,12.92A1.7,1.7,0,0,1,159.75,76.4Z"/><path id="_Path_8" data-name="&lt;Path&gt;" class="cls-14" d="M156.17,67.14h0a1.06,1.06,0,0,1-1.32-.71l-1.15-3.77,3.15-1.29.87,2.87A2.33,2.33,0,0,1,156.17,67.14Z"/><path id="_Path_9" data-name="&lt;Path&gt;" class="cls-15" d="M148.86,39.18s-7,2.52-5,10.57"/></g><path id="_Compound_Path_4" data-name="&lt;Compound Path&gt;" class="cls-16" d="M153.62,59.41c-4.92,3.5-12.26,1.34-16.4-4.82s-3.5-14,1.43-17.49,12.26-1.34,16.4,4.82S158.55,55.91,153.62,59.41Z"/><path id="_Compound_Path_5" data-name="&lt;Compound Path&gt;" class="cls-17" d="M156.27,40.86c-4.7-6.8-13.05-9.17-18.66-5.29S131.26,48.1,136,54.9s13.05,9.17,18.66,5.29S161,47.66,156.27,40.86Zm-2.69,17.83C148.66,62.1,141.32,60,137.2,54s-3.47-13.57,1.45-17,12.27-1.32,16.39,4.65S158.51,55.29,153.59,58.69Z"/><path id="_Compound_Path_6" data-name="&lt;Compound Path&gt;" class="cls-18" d="M155.54,41.66c-4.7-6.8-13.05-9.17-18.66-5.29s-6.35,12.53-1.65,19.33,13.05,9.17,18.66,5.29S160.23,48.46,155.54,41.66Zm-2.69,17.83c-4.93,3.4-12.27,1.32-16.39-4.65s-3.47-13.57,1.45-17,12.27-1.32,16.39,4.65S157.78,56.09,152.85,59.49Z"/><path id="_Path_10" data-name="&lt;Path&gt;" class="cls-19" d="M154.75,76.4h0a1.7,1.7,0,0,1-2.11-1.13l-4-12.92,3.25-1,4,12.92A1.7,1.7,0,0,1,154.75,76.4Z"/><path id="_Path_11" data-name="&lt;Path&gt;" class="cls-20" d="M151.17,67.14h0a1.06,1.06,0,0,1-1.32-.71l-1.15-3.77,3.15-1.29.87,2.87A2.33,2.33,0,0,1,151.17,67.14Z"/><path id="_Path_12" data-name="&lt;Path&gt;" class="cls-21" d="M143.86,39.18s-7,2.52-5,10.57"/></g><polygon class="cls-22" points="43.04 71.61 43.04 73.7 81.23 90.47 118.14 73.7 118.14 72.19 81.13 88.41 43.04 71.61"/><ellipse class="cls-23" cx="27.62" cy="60.08" rx="5.21" ry="2.88"/><ellipse class="cls-23" cx="38.04" cy="66.15" rx="5.21" ry="2.88"/><ellipse class="cls-24" cx="64.67" cy="71.62" rx="9.24" ry="5.11"/><ellipse class="cls-10" cx="64.67" cy="71.62" rx="5.69" ry="3.15"/><polygon class="cls-25" points="36.02 53.66 39.98 55.41 64.67 44.62 60.89 42.81 36.02 53.66"/><polygon class="cls-25" points="44.66 59.96 48.61 61.7 73.31 50.91 69.53 49.11 44.66 59.96"/><polyline class="cls-26" points="25.52 61.06 27.62 61.06 27.04 56.79"/><polyline class="cls-26" points="36.02 66.83 38.12 66.83 37.54 62.56"/><polygon class="cls-22" points="71.21 65.03 70.25 64.51 81.3 59.56 82.27 60.08 71.21 65.03"/><polygon class="cls-22" points="74.42 67.48 73.25 66.85 84.3 61.91 85.27 62.42 74.42 67.48"/><path class="cls-27" d="M80.66,74.37s.79-5.08,4.83-1.22,5,4.23,7.23,1.22,4.05-9.2,7.43-6.28,2.4,1.65,2.4,1.65l1,2.06s-.49,2.42-6.2,5.75a39.58,39.58,0,0,1-15.46,5.89c-1.19.18-2.45-1.4-3.77-1.25Z"/><path class="cls-28" d="M81.2,83.51s4.8-15.29,8.31-12.6,6,6,7.56,3.43,2.94-8,5-6.94l.72.76.88,4.66s-1.23,2.28-7,4.8C96.66,77.62,91.12,82.34,81.2,83.51Z"/><polyline class="cls-29" points="71.74 78.52 83.69 84.82 107.38 74.6"/></g></g></g></svg>