<svg xmlns="http://www.w3.org/2000/svg" xmlns:xlink="http://www.w3.org/1999/xlink" viewBox="0 0 156.66 158.06"><defs><style>.cls-1,.cls-16,.cls-37,.cls-39,.cls-4{fill:none;}.cls-2{opacity:0.19;fill:url(#linear-gradient);}.cls-3,.cls-6{fill:#a0c7f0;}.cls-3{opacity:0.2;}.cls-4{stroke:#42a5f5;}.cls-37,.cls-39,.cls-4{stroke-linecap:round;stroke-linejoin:round;stroke-width:0.75px;opacity:0.29;}.cls-5{fill:#42a5f5;}.cls-38,.cls-5{opacity:0.53;}.cls-6{opacity:0.69;}.cls-7{fill:url(#linear-gradient-2);}.cls-8{fill:url(#linear-gradient-3);}.cls-9{fill:url(#linear-gradient-4);}.cls-10{fill:url(#linear-gradient-5);}.cls-11,.cls-12,.cls-13,.cls-15,.cls-24,.cls-28,.cls-36,.cls-38,.cls-41{fill:#fff;}.cls-11{opacity:0.76;}.cls-13{opacity:0.39;}.cls-14{fill:url(#linear-gradient-6);}.cls-15,.cls-16{opacity:0.43;}.cls-16,.cls-37{stroke:#fff;}.cls-16{stroke-miterlimit:10;stroke-width:0.5px;stroke-dasharray:1;}.cls-17{isolation:isolate;}.cls-18{clip-path:url(#clip-path);}.cls-19{fill:#62bcff;}.cls-20{fill:#a4d8ff;}.cls-21{fill:#cae8ff;}.cls-22{clip-path:url(#clip-path-2);}.cls-23{fill:#1b9cff;}.cls-24{opacity:0.42;}.cls-25{fill:#7bc6ff;}.cls-26{fill:#b2deff;}.cls-27{fill:url(#linear-gradient-7);}.cls-28{opacity:0.12;}.cls-29{opacity:0.63;}.cls-30{clip-path:url(#clip-path-3);}.cls-31{fill:url(#linear-gradient-8);}.cls-32{fill:#fc8524;}.cls-33{fill:url(#linear-gradient-9);}.cls-34{fill:#f9793a;}.cls-35{fill:url(#linear-gradient-10);}.cls-36{opacity:0.27;}.cls-39{stroke:#ff9a40;}.cls-40{fill:url(#linear-gradient-11);}.cls-41{opacity:0.85;}</style><linearGradient id="linear-gradient" x1="-2903.4" y1="77.52" x2="-2886.78" y2="65.99" gradientTransform="matrix(-1, 0, 0, 0.89, -2773.51, 110.85)" gradientUnits="userSpaceOnUse"><stop offset="0" stop-color="#fcdb21" stop-opacity="0"/><stop offset="1" stop-color="#ff9a40"/></linearGradient><linearGradient id="linear-gradient-2" x1="45.14" y1="80.38" x2="66.64" y2="102.72" gradientUnits="userSpaceOnUse"><stop offset="0" stop-color="#fcdb21"/><stop offset="1" stop-color="#ff8340"/></linearGradient><linearGradient id="linear-gradient-3" x1="41.48" y1="83.91" x2="62.98" y2="106.24" xlink:href="#linear-gradient-2"/><linearGradient id="linear-gradient-4" x1="38" y1="87.26" x2="59.5" y2="109.59" xlink:href="#linear-gradient-2"/><linearGradient id="linear-gradient-5" x1="37.52" y1="87.72" x2="59.02" y2="110.06" xlink:href="#linear-gradient-2"/><linearGradient id="linear-gradient-6" x1="95.54" y1="89.17" x2="121.53" y2="89.17" xlink:href="#linear-gradient-2"/><clipPath id="clip-path" transform="translate(0 -10.98)"><polygon class="cls-1" points="52.15 53.63 52.06 22.42 90.88 0 90.97 31.22 52.15 53.63"/></clipPath><clipPath id="clip-path-2" transform="translate(0 -10.98)"><polygon class="cls-1" points="54.92 53.37 54.84 24.86 93.67 2.44 93.75 30.96 54.92 53.37"/></clipPath><linearGradient id="linear-gradient-7" x1="-2467.74" y1="48.38" x2="-2493.2" y2="79.49" gradientTransform="matrix(-1, 0, 0, 1, -2343.05, 0)" xlink:href="#linear-gradient-2"/><clipPath id="clip-path-3" transform="translate(0 -10.98)"><polygon class="cls-1" points="137.66 74 137.69 63.55 146.68 68.74 146.65 79.19 137.66 74"/></clipPath><linearGradient id="linear-gradient-8" x1="223.97" y1="81.47" x2="201.53" y2="108.91" gradientTransform="translate(-195.79)" xlink:href="#linear-gradient-2"/><linearGradient id="linear-gradient-9" x1="20.71" y1="150.78" x2="130.17" y2="150.78" xlink:href="#linear-gradient-2"/><linearGradient id="linear-gradient-10" x1="57.03" y1="178.43" x2="109.36" y2="146.79" xlink:href="#linear-gradient-2"/><linearGradient id="linear-gradient-11" x1="-2470.24" y1="112.95" x2="-2480.72" y2="125.76" gradientTransform="matrix(-1, 0, 0, 1, -2343.05, 0)" xlink:href="#linear-gradient-2"/></defs><title>Data Analysis Suite</title><g id="Layer_2" data-name="Layer 2"><g id="Layer_1-2" data-name="Layer 1"><ellipse class="cls-2" cx="96.96" cy="159.43" rx="48.76" ry="9.24" transform="translate(-8.66 -5.38) rotate(-3.17)"/><ellipse class="cls-3" cx="79.06" cy="55.17" rx="41.9" ry="13.47"/><path class="cls-3" d="M44.36,73.7s2.87-11.62,31.25-11.4,37.59,5,39.19,10.88c0,0,15.17-7.93-2.89-15.4S59.54,52,48.08,57.07a57.54,57.54,0,0,0-7,3.37c-5.84,3.78-5.93,8.65,2.24,12.73Z" transform="translate(0 -10.98)"/><line class="cls-4" x1="84.63" y1="47" x2="84.63" y2="41.4"/><line class="cls-4" x1="79.25" y1="65.91" x2="79.25" y2="56.69"/><line class="cls-4" x1="79.87" y1="45.18" x2="79.87" y2="32.22"/><line class="cls-4" x1="73.8" y1="58.75" x2="73.8" y2="51.34"/><line class="cls-4" x1="89.37" y1="54.03" x2="89.37" y2="37.1"/><line class="cls-4" x1="89.37" y1="62.02" x2="89.37" y2="58.27"/><line class="cls-4" x1="84.63" y1="37.86" x2="84.63" y2="32.26"/><line class="cls-4" x1="68.35" y1="56.49" x2="68.35" y2="47.95"/><circle class="cls-5" cx="84.63" cy="39.63" r="0.46"/><circle class="cls-5" cx="89.37" cy="35.7" r="0.46"/><circle class="cls-5" cx="68.35" cy="44.2" r="0.46"/><circle class="cls-5" cx="79.87" cy="46.54" r="0.46"/><line class="cls-4" x1="84.63" y1="58.37" x2="84.63" y2="52.77"/><circle class="cls-5" cx="84.63" cy="60.15" r="0.46"/><line class="cls-4" x1="87.28" y1="32.69" x2="87.28" y2="27.09"/><circle class="cls-5" cx="87.28" cy="25.32" r="0.46"/><line class="cls-4" x1="74.16" y1="46.54" x2="74.16" y2="40.94"/><line class="cls-4" x1="67.89" y1="39.87" x2="67.89" y2="37.53"/><line class="cls-4" x1="74.16" y1="36.4" x2="74.16" y2="34.07"/><circle class="cls-5" cx="74.16" cy="39.17" r="0.46"/><circle class="cls-5" cx="68.35" cy="58.28" r="0.46"/><circle class="cls-5" cx="79.25" cy="55.36" r="0.46"/><path class="cls-6" d="M37.78,103.54c0,7.43,18.8,13.47,41.9,13.47s41.87-6,41.9-13.45v0c0-.5,0-10.72,0-10.72C113,99.12,96.29,102,79.68,102s-33.3-2.93-41.91-9.25C37.77,92.8,37.78,103,37.78,103.54Z" transform="translate(0 -10.98)"/><path class="cls-6" d="M37.78,124.09c0,7.43,18.8,13.47,41.9,13.47s41.87-6,41.9-13.45v0c0-.5,0-10.72,0-10.72-8.61,6.31-25.3,9.24-41.9,9.24s-33.3-2.93-41.91-9.25C37.77,113.34,37.78,123.58,37.78,124.09Z" transform="translate(0 -10.98)"/><path class="cls-6" d="M37.78,85.14c0,7.43,18.8,13.47,41.9,13.47s41.87-6,41.9-13.45v0c0-.5,0-10.72,0-10.72-8.61,6.31-25.3,9.24-41.9,9.24s-33.3-2.93-41.91-9.25C37.77,74.4,37.78,84.64,37.78,85.14Z" transform="translate(0 -10.98)"/><polygon class="cls-7" points="64.51 105.12 66.4 105.34 66.4 97.84 64.51 97.84 64.51 105.12"/><polygon class="cls-8" points="56.12 103.7 58.01 104.09 58.01 96.5 56.12 96.5 56.12 103.7"/><polygon class="cls-9" points="47.6 101.22 49.48 101.89 49.48 95.2 47.6 95.2 47.6 101.22"/><polygon class="cls-10" points="43.51 99.36 45.4 100.3 45.4 90.49 43.51 90.49 43.51 99.36"/><polygon class="cls-11" points="40.2 97.17 42.09 98.54 42.09 88.08 40.2 88.08 40.2 97.17"/><polygon class="cls-11" points="60.45 104.53 62.34 104.83 62.34 93.66 60.45 93.66 60.45 104.53"/><polygon class="cls-11" points="52.09 102.69 53.98 103.2 53.98 92.38 52.09 92.38 52.09 102.69"/><circle class="cls-12" cx="47.12" cy="74.44" r="1.41"/><circle class="cls-12" cx="53.85" cy="76.61" r="1.41"/><circle class="cls-12" cx="45.16" cy="112.44" r="1.41"/><circle class="cls-12" cx="51.89" cy="114.62" r="1.41"/><path class="cls-13" d="M95.27,89s.91-5.84,5.56-1.41,5.78,4.87,8.32,1.41,4.66-10.58,8.55-7.23,3.89,1.55,3.89,1.55V86s-.7,8.7-29.25,11.95Z" transform="translate(0 -10.98)"/><path class="cls-14" d="M95.54,97.61s6.65-15.78,10.69-12.68,6.91,6.86,8.69,3.95,3.38-9.24,5.78-8l.83.88v4s-.4,3.94-7.08,6.84A64.93,64.93,0,0,1,95.54,97.61Z" transform="translate(0 -10.98)"/><circle class="cls-15" cx="92.64" cy="121.66" r="0.8"/><circle class="cls-15" cx="97.57" cy="116.03" r="1.13"/><circle class="cls-15" cx="104.2" cy="119.31" r="0.8"/><circle class="cls-15" cx="116.13" cy="117.96" r="0.8"/><circle class="cls-15" cx="108.24" cy="113.57" r="1.13"/><circle class="cls-15" cx="120.1" cy="106.37" r="1.13"/><line class="cls-16" x1="93.48" y1="120.53" x2="96.44" y2="117.16"/><line class="cls-16" x1="98.7" y1="116.56" x2="103.31" y2="118.61"/><line class="cls-16" x1="104.99" y1="118.18" x2="107.48" y2="114.7"/><line class="cls-16" x1="109.74" y1="113.99" x2="115.28" y2="117.16"/><line class="cls-16" x1="116.55" y1="116.76" x2="119.58" y2="107.7"/><g class="cls-17"><g class="cls-18"><path class="cls-19" d="M82.88,28h0a1.26,1.26,0,0,0-.57,1c0,.37.23.53.54.36l0,0a1.26,1.26,0,0,0,.56-.95c0-.37-.23-.53-.54-.36M65.71,37.8h0a1.27,1.27,0,0,0-.57,1c0,.37.23.53.54.37h0a1.26,1.26,0,0,0,.57-1c0-.37-.23-.53-.54-.37m-8.9,3.83a1.25,1.25,0,0,0-.56.95.4.4,0,0,0,.15.38.37.37,0,0,0,.39,0h0a1.09,1.09,0,0,0,.38-.39,1.16,1.16,0,0,0,.18-.56c0-.37-.23-.53-.54-.36h0m17-15.18h0a1.25,1.25,0,0,0-.57,1,.42.42,0,0,0,.15.38.38.38,0,0,0,.39,0l0,0a1.07,1.07,0,0,0,.36-.38,1.22,1.22,0,0,0,.18-.55.42.42,0,0,0-.15-.38.37.37,0,0,0-.39,0m-4.55,2h0a1.13,1.13,0,0,0-.38.39,1.16,1.16,0,0,0-.18.56.43.43,0,0,0,.15.38.38.38,0,0,0,.4,0l0,0a1.12,1.12,0,0,0,.37-.38,1.21,1.21,0,0,0,.18-.55c0-.37-.23-.53-.54-.37m10.14-9.09h0a1.1,1.1,0,0,0-.38.39,1.16,1.16,0,0,0-.18.56.43.43,0,0,0,.15.38.39.39,0,0,0,.4,0l0,0a1.12,1.12,0,0,0,.37-.38,1.19,1.19,0,0,0,.18-.55c0-.37-.23-.53-.54-.37M64.55,27.64h0a1.12,1.12,0,0,0-.38.4,1.16,1.16,0,0,0-.18.55.42.42,0,0,0,.15.38.37.37,0,0,0,.39,0h0a1.28,1.28,0,0,0,.57-1,.42.42,0,0,0-.15-.38.37.37,0,0,0-.4,0m18.17,2.1c-.41.16-.72-.09-.71-.59a1.88,1.88,0,0,1,.84-1.41l0,0c.46-.24.82,0,.8.54a1.88,1.88,0,0,1-.7,1.32v3.53l-.27.15V29.74M65.56,39.5c-.41.16-.72-.08-.71-.59a1.87,1.87,0,0,1,.84-1.4l0,0c.46-.24.82,0,.8.54a1.88,1.88,0,0,1-.7,1.32v3.53l-.27.15V39.5m-8.88,3.81a.51.51,0,0,1-.49,0,.65.65,0,0,1-.22-.56,1.79,1.79,0,0,1,.27-.82,1.66,1.66,0,0,1,.56-.58l0,0c.46-.24.82,0,.8.54a1.7,1.7,0,0,1-.27.82,1.84,1.84,0,0,1-.43.49V48l-.27.15V43.31m17-15.16a.52.52,0,0,1-.49,0,.62.62,0,0,1-.22-.56,1.7,1.7,0,0,1,.27-.82,1.63,1.63,0,0,1,.56-.57l0,0a.55.55,0,0,1,.58,0,.63.63,0,0,1,.22.56,1.68,1.68,0,0,1-.27.82,1.79,1.79,0,0,1-.43.5v4.65l1.5.57v4.12l-.27.15v-4l-1.5-.58V28.15m-4.55,2a.54.54,0,0,1-.49,0,.62.62,0,0,1-.22-.57,1.7,1.7,0,0,1,.27-.82,1.63,1.63,0,0,1,.56-.57l0,0c.46-.24.82,0,.8.54a1.76,1.76,0,0,1-.27.83,1.84,1.84,0,0,1-.43.49l0,10.81-.27.15,0-10.81m10.14-9.09a.52.52,0,0,1-.48,0,.61.61,0,0,1-.23-.56,1.78,1.78,0,0,1,.27-.83,1.63,1.63,0,0,1,.55-.57l0,0c.47-.25.82,0,.81.53a1.81,1.81,0,0,1-.27.83,1.77,1.77,0,0,1-.43.48l0,14-.27.16,0-14M64.39,29.34a.49.49,0,0,1-.48,0,.64.64,0,0,1-.23-.57,1.82,1.82,0,0,1,.27-.82,1.7,1.7,0,0,1,.56-.57l0,0a.55.55,0,0,1,.58,0,.64.64,0,0,1,.23.57,1.88,1.88,0,0,1-.7,1.31v5.19L61,40.73v4.92l-.27.16v-5l3.67-6.36V29.34M67,13.82c-4.92,2.84-8.89,9.72-8.87,15.37a9.27,9.27,0,0,0,.4,2.79,14.49,14.49,0,0,0-6.37,11.25c0,4.17,3.82,8.22,7.45,6.12L84.38,32.17a14.46,14.46,0,0,0,6.56-11.36c0-3.54-3.41-3.13-6.26-2.32a9.91,9.91,0,0,0,.07-1.14c0-3.21-.56-6.44-3.34-6.38a4.91,4.91,0,0,0-2.31.73,12.17,12.17,0,0,0-3.83,3.83C74,12.48,70.73,11.63,67,13.82" transform="translate(0 -10.98)"/><path class="cls-20" d="M56.68,43.31v4.85L57,48V43.16l-.13.09h0l-.1,0" transform="translate(0 -10.98)"/><path class="cls-20" d="M56.82,42.93h0a.37.37,0,0,1-.39,0,.4.4,0,0,1-.15-.38,1.25,1.25,0,0,1,.56-.95h0c.31-.17.56,0,.54.36a1.16,1.16,0,0,1-.18.56,1.09,1.09,0,0,1-.38.39m0-1.61a1.66,1.66,0,0,0-.56.58,1.79,1.79,0,0,0-.27.82.65.65,0,0,0,.22.56.51.51,0,0,0,.49,0v-.14l.27-.15v.15a1.84,1.84,0,0,0,.43-.49,1.7,1.7,0,0,0,.27-.82c0-.54-.34-.79-.8-.54l0,0" transform="translate(0 -10.98)"/><path class="cls-21" d="M56.95,43l-.27.15v.14l.1,0h0l.13-.09V43" transform="translate(0 -10.98)"/><path class="cls-20" d="M79.41,20.67l0,0a.39.39,0,0,1-.4,0,.43.43,0,0,1-.15-.38,1.16,1.16,0,0,1,.18-.56,1.1,1.1,0,0,1,.38-.39h0c.31-.17.56,0,.54.37a1.19,1.19,0,0,1-.18.55,1.12,1.12,0,0,1-.37.38m0-1.59a1.63,1.63,0,0,0-.55.57,1.78,1.78,0,0,0-.27.83.61.61,0,0,0,.23.56.52.52,0,0,0,.48,0v-.14l.27-.16v.14a1.77,1.77,0,0,0,.43-.48,1.81,1.81,0,0,0,.27-.83c0-.54-.34-.78-.81-.53l0,0" transform="translate(0 -10.98)"/><path class="cls-20" d="M64.52,29h0a.37.37,0,0,1-.39,0,.42.42,0,0,1-.15-.38,1.16,1.16,0,0,1,.18-.55,1.12,1.12,0,0,1,.38-.4h0a.37.37,0,0,1,.4,0,.42.42,0,0,1,.15.38,1.28,1.28,0,0,1-.57,1m0-1.61a1.7,1.7,0,0,0-.56.57,1.82,1.82,0,0,0-.27.82.64.64,0,0,0,.23.57.49.49,0,0,0,.48,0V29.2l.27-.16v.14a1.88,1.88,0,0,0,.7-1.31.64.64,0,0,0-.23-.57.55.55,0,0,0-.58,0l0,0" transform="translate(0 -10.98)"/><path class="cls-20" d="M73.81,27.76l0,0a.38.38,0,0,1-.39,0,.42.42,0,0,1-.15-.38,1.25,1.25,0,0,1,.57-1h0a.37.37,0,0,1,.39,0,.42.42,0,0,1,.15.38,1.22,1.22,0,0,1-.18.55,1.07,1.07,0,0,1-.36.38m0-1.59a1.63,1.63,0,0,0-.56.57,1.7,1.7,0,0,0-.27.82.62.62,0,0,0,.22.56.52.52,0,0,0,.49,0V28l.27-.15V28a1.79,1.79,0,0,0,.43-.5,1.68,1.68,0,0,0,.27-.82.63.63,0,0,0-.22-.56.55.55,0,0,0-.58,0l0,0" transform="translate(0 -10.98)"/><path class="cls-20" d="M69.26,29.77l0,0a.38.38,0,0,1-.4,0,.43.43,0,0,1-.15-.38,1.16,1.16,0,0,1,.18-.56,1.13,1.13,0,0,1,.38-.39h0c.31-.17.56,0,.54.37a1.21,1.21,0,0,1-.18.55,1.12,1.12,0,0,1-.37.38m0-1.59a1.63,1.63,0,0,0-.56.57,1.7,1.7,0,0,0-.27.82.62.62,0,0,0,.22.57.54.54,0,0,0,.49,0V30l.27-.15V30a1.84,1.84,0,0,0,.43-.49,1.76,1.76,0,0,0,.27-.83c0-.54-.34-.78-.8-.54l0,0" transform="translate(0 -10.98)"/><path class="cls-20" d="M65.69,39.12h0c-.31.16-.56,0-.54-.37a1.27,1.27,0,0,1,.57-1h0c.31-.17.56,0,.54.37a1.26,1.26,0,0,1-.57,1m0-1.62a1.87,1.87,0,0,0-.84,1.4c0,.51.29.75.71.59v-.14l.27-.15v.14a1.88,1.88,0,0,0,.7-1.32c0-.54-.34-.78-.8-.54l0,0" transform="translate(0 -10.98)"/><path class="cls-20" d="M64.67,29.18l-.14.09,0,0-.1,0v5.07l-3.67,6.36v5l.27-.16V40.73l3.67-6.36V29.18" transform="translate(0 -10.98)"/><path class="cls-21" d="M64.67,29l-.27.16v.14l.1,0,0,0,.14-.09V29" transform="translate(0 -10.98)"/><path class="cls-20" d="M69.11,30.15l0,10.81.27-.15,0-10.81-.13.09,0,0-.1,0" transform="translate(0 -10.98)"/><path class="cls-21" d="M69.38,29.86l-.27.15v.14l.1,0,0,0,.13-.09v-.14" transform="translate(0 -10.98)"/><path class="cls-20" d="M65.83,39.34l-.13.09,0,0-.1,0V43l.27-.15V39.34" transform="translate(0 -10.98)"/><path class="cls-21" d="M65.83,39.2l-.27.15v.14l.1,0,0,0,.13-.09V39.2" transform="translate(0 -10.98)"/><path class="cls-20" d="M82.86,29.36l0,0c-.31.17-.56,0-.54-.36a1.26,1.26,0,0,1,.57-1h0c.31-.17.56,0,.54.36a1.26,1.26,0,0,1-.56.95m0-1.61A1.88,1.88,0,0,0,82,29.15c0,.5.29.75.71.59V29.6l.27-.15v.14a1.88,1.88,0,0,0,.7-1.32c0-.54-.34-.79-.8-.54l0,0" transform="translate(0 -10.98)"/><path class="cls-20" d="M83,29.59l-.13.09,0,0-.1,0v3.53l.27-.15V29.59" transform="translate(0 -10.98)"/><path class="cls-21" d="M83,29.45l-.27.15v.14l.1,0,0,0,.13-.09v-.14" transform="translate(0 -10.98)"/><path class="cls-20" d="M79.26,21.06l0,14,.27-.16,0-14L79.4,21l0,0-.1,0" transform="translate(0 -10.98)"/><path class="cls-21" d="M79.53,20.76l-.27.16v.14l.1,0,0,0,.13-.09v-.14" transform="translate(0 -10.98)"/><path class="cls-20" d="M73.66,28.15v4.79l1.5.58v4l.27-.15V33.21l-1.5-.57V28l-.13.09,0,0-.1,0" transform="translate(0 -10.98)"/><path class="cls-21" d="M73.93,27.85l-.27.15v.14l.1,0,0,0,.13-.09v-.14" transform="translate(0 -10.98)"/></g></g><g class="cls-17"><g class="cls-22"><path class="cls-23" d="M87.55,29.39h0a1.24,1.24,0,0,0-.57,1c0,.37.23.53.54.36l0,0a1.25,1.25,0,0,0,.55-.94c0-.36-.23-.53-.54-.36M70.39,39.14h0a1.24,1.24,0,0,0-.57,1c0,.37.23.53.54.37h0a1.28,1.28,0,0,0,.57-1c0-.37-.23-.53-.54-.37M61.51,43h0a1.13,1.13,0,0,0-.38.39,1.16,1.16,0,0,0-.18.56.39.39,0,0,0,.15.37.36.36,0,0,0,.39,0h0a1.12,1.12,0,0,0,.38-.39,1.22,1.22,0,0,0,.18-.56c0-.37-.23-.53-.54-.36m17-15.17h0a1.11,1.11,0,0,0-.38.39,1.16,1.16,0,0,0-.18.56.43.43,0,0,0,.15.38.4.4,0,0,0,.4,0h0a1.17,1.17,0,0,0,.39-.4,1.19,1.19,0,0,0,.18-.55.42.42,0,0,0-.15-.38.37.37,0,0,0-.39,0m-4.55,2h0a1.15,1.15,0,0,0-.38.39,1.19,1.19,0,0,0-.18.56.43.43,0,0,0,.15.38.39.39,0,0,0,.4,0h0a1.17,1.17,0,0,0,.39-.4,1.19,1.19,0,0,0,.18-.55c0-.37-.23-.53-.54-.37m10.15-9.09h0a1.15,1.15,0,0,0-.38.39,1.19,1.19,0,0,0-.18.56.43.43,0,0,0,.15.38.39.39,0,0,0,.4,0l0,0a1.07,1.07,0,0,0,.36-.38,1.16,1.16,0,0,0,.18-.55c0-.37-.23-.53-.54-.37M69.22,29h0a1.09,1.09,0,0,0-.38.4,1.16,1.16,0,0,0-.18.55.4.4,0,0,0,.15.38.36.36,0,0,0,.39,0h0a1.16,1.16,0,0,0,.38-.39,1.24,1.24,0,0,0,.18-.56.42.42,0,0,0-.15-.38.37.37,0,0,0-.39,0m1,11.85c-.41.16-.73-.08-.71-.59a1.87,1.87,0,0,1,.83-1.4l0,0c.47-.25.82,0,.81.53a1.88,1.88,0,0,1-.7,1.32v3.53l-.27.15V40.84m8.1-11.35a.53.53,0,0,1-.48,0,.63.63,0,0,1-.23-.57,1.78,1.78,0,0,1,.27-.83,1.61,1.61,0,0,1,.55-.57l0,0a.54.54,0,0,1,.58,0,.62.62,0,0,1,.23.56,1.81,1.81,0,0,1-.27.83,1.77,1.77,0,0,1-.43.48V34l1.5.57v4.12l-.27.16v-4l-1.5-.58V29.49m-4.55,2a.51.51,0,0,1-.48,0,.64.64,0,0,1-.23-.57,1.78,1.78,0,0,1,.27-.83,1.61,1.61,0,0,1,.55-.57l0,0c.47-.25.82,0,.81.54a1.89,1.89,0,0,1-.7,1.31l0,10.81-.27.16,0-10.81m10.15-9.1a.52.52,0,0,1-.48,0,.63.63,0,0,1-.23-.57A1.78,1.78,0,0,1,83.5,21a1.58,1.58,0,0,1,.55-.57l0,0c.46-.24.82,0,.8.54a1.73,1.73,0,0,1-.27.83,1.79,1.79,0,0,1-.43.48l0,14-.27.16,0-14M69.07,30.68a.51.51,0,0,1-.49,0,.63.63,0,0,1-.22-.57,1.83,1.83,0,0,1,.83-1.4l0,0a.55.55,0,0,1,.58,0,.64.64,0,0,1,.22.57,1.7,1.7,0,0,1-.27.82,1.84,1.84,0,0,1-.43.49v5.19l-3.67,6.36V47l-.27.15v-5l3.67-6.36V30.68m.68-14.43c-4.92,2.84-8.89,9.72-8.88,15.37a9.28,9.28,0,0,0,.4,2.79A14.5,14.5,0,0,0,54.9,45.66c0,4.12,2.9,5.81,6.47,3.83V44.65a.52.52,0,0,1-.49,0,.61.61,0,0,1-.22-.56,1.86,1.86,0,0,1,.83-1.4l0,0c.46-.24.82,0,.8.54a1.7,1.7,0,0,1-.27.82,1.9,1.9,0,0,1-.43.49v4.84l-.13.08L87.17,34.6l.23-.14V31.09c-.41.16-.72-.09-.71-.59a1.89,1.89,0,0,1,.84-1.41l0,0c.47-.24.82,0,.81.54a1.88,1.88,0,0,1-.7,1.32v3.36a14.56,14.56,0,0,0,6.05-11c0-3.54-2.13-5.29-5-4.47a9.91,9.91,0,0,0,.07-1.14c0-4.17-3-5.86-6.6-3.76A12.94,12.94,0,0,0,78.05,18c-1.31-3.06-4.54-3.9-8.31-1.72" transform="translate(0 -10.98)"/><path class="cls-24" d="M61.37,49.49h0l.13-.08-.13.08" transform="translate(0 -10.98)"/><path class="cls-25" d="M61.62,44.5l-.13.09,0,0-.1,0v4.84l.13-.08.13-.08V44.5" transform="translate(0 -10.98)"/><path class="cls-25" d="M61.49,44.27h0a.36.36,0,0,1-.39,0,.39.39,0,0,1-.15-.37,1.16,1.16,0,0,1,.18-.56,1.13,1.13,0,0,1,.38-.39h0c.31-.17.56,0,.54.36a1.22,1.22,0,0,1-.18.56,1.12,1.12,0,0,1-.38.39m0-1.61a1.86,1.86,0,0,0-.83,1.4.61.61,0,0,0,.22.56.52.52,0,0,0,.49,0v-.15l.27-.15v.15a1.9,1.9,0,0,0,.43-.49,1.7,1.7,0,0,0,.27-.82c0-.54-.34-.79-.8-.54l0,0" transform="translate(0 -10.98)"/><path class="cls-26" d="M61.62,44.35l-.27.15v.15l.1,0,0,0,.13-.09v-.15" transform="translate(0 -10.98)"/><path class="cls-25" d="M84.09,22l0,0a.39.39,0,0,1-.4,0,.43.43,0,0,1-.15-.38,1.19,1.19,0,0,1,.18-.56,1.15,1.15,0,0,1,.38-.39h0c.31-.17.56,0,.54.37a1.16,1.16,0,0,1-.18.55,1.07,1.07,0,0,1-.36.38m0-1.59a1.58,1.58,0,0,0-.55.57,1.78,1.78,0,0,0-.27.83.63.63,0,0,0,.23.57.52.52,0,0,0,.48,0v-.14l.27-.16v.14a1.79,1.79,0,0,0,.43-.48,1.73,1.73,0,0,0,.27-.83c0-.54-.34-.78-.8-.54l0,0" transform="translate(0 -10.98)"/><path class="cls-25" d="M69.2,30.31h0a.36.36,0,0,1-.39,0,.4.4,0,0,1-.15-.38,1.16,1.16,0,0,1,.18-.55,1.09,1.09,0,0,1,.38-.4h0a.37.37,0,0,1,.39,0,.42.42,0,0,1,.15.38,1.24,1.24,0,0,1-.18.56,1.16,1.16,0,0,1-.38.39m0-1.61a1.83,1.83,0,0,0-.83,1.4.63.63,0,0,0,.22.57.51.51,0,0,0,.49,0v-.14l.27-.15v.14a1.84,1.84,0,0,0,.43-.49,1.7,1.7,0,0,0,.27-.82.64.64,0,0,0-.22-.57.55.55,0,0,0-.58,0l0,0" transform="translate(0 -10.98)"/><path class="cls-25" d="M78.47,29.12h0a.4.4,0,0,1-.4,0,.43.43,0,0,1-.15-.38,1.16,1.16,0,0,1,.18-.56,1.11,1.11,0,0,1,.38-.39h0a.37.37,0,0,1,.39,0,.42.42,0,0,1,.15.38,1.19,1.19,0,0,1-.18.55,1.17,1.17,0,0,1-.39.4m0-1.61a1.61,1.61,0,0,0-.55.57,1.78,1.78,0,0,0-.27.83.63.63,0,0,0,.23.57.53.53,0,0,0,.48,0v-.14l.27-.16v.14a1.77,1.77,0,0,0,.43-.48A1.81,1.81,0,0,0,79.3,28a.62.62,0,0,0-.23-.56.54.54,0,0,0-.58,0l0,0" transform="translate(0 -10.98)"/><path class="cls-25" d="M73.92,31.12h0a.39.39,0,0,1-.4,0,.43.43,0,0,1-.15-.38,1.19,1.19,0,0,1,.18-.56,1.15,1.15,0,0,1,.38-.39h0c.31-.17.56,0,.54.37a1.19,1.19,0,0,1-.18.55,1.17,1.17,0,0,1-.39.4m0-1.61a1.61,1.61,0,0,0-.55.57,1.78,1.78,0,0,0-.27.83.64.64,0,0,0,.23.57.51.51,0,0,0,.48,0v-.14l.27-.16v.14a1.89,1.89,0,0,0,.7-1.31c0-.55-.34-.79-.81-.54l0,0" transform="translate(0 -10.98)"/><path class="cls-25" d="M70.37,40.47h0c-.31.16-.56,0-.54-.37a1.24,1.24,0,0,1,.57-1h0c.31-.17.56,0,.54.37a1.28,1.28,0,0,1-.57,1m0-1.62a1.87,1.87,0,0,0-.83,1.4c0,.51.29.75.71.59v-.14l.27-.15v.14a1.88,1.88,0,0,0,.7-1.32c0-.54-.34-.78-.81-.53l0,0" transform="translate(0 -10.98)"/><path class="cls-25" d="M69.34,30.52l-.13.09,0,0-.1,0v5.06l-3.67,6.36v5l.27-.15V42.08l3.67-6.36V30.52" transform="translate(0 -10.98)"/><path class="cls-26" d="M69.34,30.38l-.27.15v.14l.1,0,0,0,.13-.09v-.14" transform="translate(0 -10.98)"/><path class="cls-25" d="M74.06,31.34l-.13.09,0,0-.1,0,0,10.81.27-.16,0-10.81" transform="translate(0 -10.98)"/><path class="cls-26" d="M74.06,31.2l-.27.16v.14l.1,0,0,0,.13-.09V31.2" transform="translate(0 -10.98)"/><path class="cls-25" d="M70.5,40.68l-.13.09,0,0-.1,0v3.53l.27-.15V40.68" transform="translate(0 -10.98)"/><path class="cls-26" d="M70.5,40.54l-.27.15v.14l.1,0,0,0,.13-.09v-.14" transform="translate(0 -10.98)"/><path class="cls-25" d="M87.54,30.7l0,0c-.31.17-.56,0-.54-.36a1.24,1.24,0,0,1,.57-1h0c.31-.17.56,0,.54.36a1.25,1.25,0,0,1-.55.94m0-1.61a1.89,1.89,0,0,0-.84,1.41c0,.5.29.75.71.59v-.14l.27-.16v.14a1.88,1.88,0,0,0,.7-1.32c0-.54-.34-.78-.81-.54l0,0" transform="translate(0 -10.98)"/><path class="cls-24" d="M87.67,34.29l-.27.18v.16l.27-.16v-.18" transform="translate(0 -10.98)"/><path class="cls-25" d="M87.67,30.93l-.13.09,0,0-.1,0v3.37l.27-.18V30.93" transform="translate(0 -10.98)"/><path class="cls-26" d="M87.66,30.79l-.27.16v.14l.1,0,0,0,.13-.09v-.14" transform="translate(0 -10.98)"/><path class="cls-25" d="M83.93,22.4l0,14,.27-.16,0-14-.14.09,0,0-.1,0" transform="translate(0 -10.98)"/><path class="cls-26" d="M84.21,22.11l-.27.16v.14l.1,0,0,0,.14-.09v-.14" transform="translate(0 -10.98)"/><path class="cls-25" d="M78.33,29.49v4.79l1.5.58v4l.27-.16V34.55L78.62,34V29.33l-.13.09,0,0-.1,0" transform="translate(0 -10.98)"/><path class="cls-26" d="M78.6,29.19l-.27.16v.14l.1,0,0,0,.13-.09v-.14" transform="translate(0 -10.98)"/></g></g><path class="cls-27" d="M140.88,55.35l-9,1.33a3.5,3.5,0,0,0-3,3.52l.19,11.44a3.5,3.5,0,0,0,1,2.42l11.54,11.52a3.5,3.5,0,0,0,3.27.93l9-2.11a3.5,3.5,0,0,0,2.7-3.46l-.19-11.59a3.5,3.5,0,0,0-1.14-2.53L143.75,56.23A3.5,3.5,0,0,0,140.88,55.35Z" transform="translate(0 -10.98)"/><path class="cls-28" d="M137.91,60.18l10.22,5.48a4.6,4.6,0,0,1,2.43,4.06V79.1a2.91,2.91,0,0,1-4.21,2.61l-9-4.48a5,5,0,0,1-2.74-4.43V62.15A2.22,2.22,0,0,1,137.91,60.18Z" transform="translate(0 -10.98)"/><g class="cls-29"><path class="cls-12" d="M139.49,68.1s-.3-.13-.26.37.26.94.57.75S139.49,68.1,139.49,68.1Z" transform="translate(0 -10.98)"/><path class="cls-12" d="M143.85,69.43a.41.41,0,0,1,.4.5c0,.5-.26.94-.57.75S143.85,69.43,143.85,69.43Z" transform="translate(0 -10.98)"/><g class="cls-17"><g class="cls-30"><path class="cls-12" d="M141.69,65.86l-.21-.11h0c-.8-.39-1,.16-1.07.21-.74.32-1,1.59-1,1.66v0a7.94,7.94,0,0,0,.94,3.14,1.77,1.77,0,0,1,.27.69c-.1.52-.9.44-1.55.37a3.81,3.81,0,0,0-.76,0c-.9.11-.65,1.89-.65,2a.62.62,0,0,0,.27.41h0l8.45,4.06c.14.07.24,0,.24-.17a4.15,4.15,0,0,0-1-2.73,9.13,9.13,0,0,0-.81-.72,5.14,5.14,0,0,1-1.7-1.93.69.69,0,0,1,.19-.47,3.27,3.27,0,0,0,.56-2.42v0a6.65,6.65,0,0,0-1.05-2.83,3.71,3.71,0,0,0-1.18-1.09" transform="translate(0 -10.98)"/></g></g><path class="cls-12" d="M139.49,68.1s-.27-1.12.39-1.4c.84-.37.15-.86.64-1,.82-.33.43-.28,1.11-.41s2,1,2.14,1.65.35.24.35.8,1,1.24-.2,1.91S139.49,68.1,139.49,68.1Z" transform="translate(0 -10.98)"/></g><path class="cls-31" d="M13.91,87.63l7.92,1.17a3.09,3.09,0,0,1,2.63,3.1L24.3,102a3.09,3.09,0,0,1-.91,2.13L13.22,114.28a3.09,3.09,0,0,1-2.88.82l-8-1.86A3.09,3.09,0,0,1,0,110.18L.17,100a3.09,3.09,0,0,1,1-2.23L11.38,88.4A3.09,3.09,0,0,1,13.91,87.63Z" transform="translate(0 -10.98)"/><path class="cls-28" d="M16.52,91.89l-9,4.83a4.06,4.06,0,0,0-2.14,3.58v8.27a2.57,2.57,0,0,0,3.72,2.3L17,106.92A4.37,4.37,0,0,0,19.41,103V93.61A2,2,0,0,0,16.52,91.89Z" transform="translate(0 -10.98)"/><path class="cls-32" d="M37.94,151.47l.13,4.82c.11,4.19,6.68,6.48,10.51,7.71,8.44,2.71,17.68,3.76,26.64,4.27a108.31,108.31,0,0,0,20.94-.58c2.13-.3,1.59-.94,1.57-2.6l-.06-3.25s-19.35,3.54-44.76-1.72c0,0-11.26-2.24-14.53-7.55Z" transform="translate(0 -10.98)"/><path class="cls-33" d="M121.28,150.78c0,6.77-18.32,12.42-41.7,12.25-23-.17-41.7-5.49-41.7-12.25s18.67-12.25,41.7-12.25S121.28,144,121.28,150.78Z" transform="translate(0 -10.98)"/><path class="cls-34" d="M79.77,150.78V151l33,11.35a1.31,1.31,0,0,0,.57.08,11.54,11.54,0,0,0,7.77-4.34.86.86,0,0,0,.21-.54l.18-6.77" transform="translate(0 -10.98)"/><path class="cls-35" d="M79.76,150.84l31.68-8s18.54,6,5.22,13.39Z" transform="translate(0 -10.98)"/><path class="cls-34" d="M114.14,157.18v6.05a.83.83,0,0,1-.36.67c-3.59,2.61-12.4,3.84-15.16,4.17a.72.72,0,0,1-.86-.62l-.08-5.37-17.91-9.32v-2Z" transform="translate(0 -10.98)"/><path class="cls-12" d="M79.77,150.78l20.45,11.13s9.35-1.47,13.92-4.73Z" transform="translate(0 -10.98)"/><polygon class="cls-36" points="110.04 96.2 109.36 96.37 109.36 91.78 110.04 91.62 110.04 96.2"/><polygon class="cls-36" points="113.6 94.73 112.93 94.89 112.93 90.31 113.6 90.14 113.6 94.73"/><polygon class="cls-36" points="117.36 93.14 116.69 93.31 116.69 88.72 117.36 88.56 117.36 93.14"/><line class="cls-37" x1="61.6" y1="135.05" x2="61.6" y2="125.84"/><circle class="cls-38" cx="61.6" cy="136.94" r="0.46"/><circle class="cls-38" cx="86.09" cy="135.05" r="0.46"/><line class="cls-37" x1="66.82" y1="139.91" x2="66.82" y2="130.69"/><line class="cls-37" x1="86.09" y1="133.47" x2="86.09" y2="126.58"/><circle class="cls-38" cx="66.82" cy="128.86" r="0.46"/><line class="cls-39" x1="121.97" y1="68.64" x2="135.81" y2="68.64"/><line class="cls-39" x1="23.94" y1="87.01" x2="37.77" y2="87.01"/><line class="cls-39" x1="121.53" y1="109.36" x2="135.36" y2="109.36"/><path class="cls-40" d="M133.85,115.82l-3.7.55a1.44,1.44,0,0,0-1.23,1.45l.08,4.71a1.44,1.44,0,0,0,.42,1l4.75,4.75a1.44,1.44,0,0,0,1.35.38l3.72-.87a1.44,1.44,0,0,0,1.11-1.43l-.08-4.78a1.44,1.44,0,0,0-.47-1L135,116.18A1.44,1.44,0,0,0,133.85,115.82Z" transform="translate(0 -10.98)"/><path class="cls-41" d="M16.27,105.27V96.18a.64.64,0,0,0-.93-.58L9.45,98.35a.64.64,0,0,0-.36.58v9.34a.64.64,0,0,0,.94.57l5.89-3A.64.64,0,0,0,16.27,105.27Z" transform="translate(0 -10.98)"/><line class="cls-39" x1="10.74" y1="89.61" x2="15.07" y2="87.63"/><line class="cls-39" x1="10.74" y1="92.47" x2="15.07" y2="90.49"/><line class="cls-39" x1="10.74" y1="95.33" x2="15.07" y2="93.35"/></g></g></svg>