<svg xmlns="http://www.w3.org/2000/svg" xmlns:xlink="http://www.w3.org/1999/xlink" width="397" height="496" viewBox="0 0 397 496"><defs><path id="ui3ta" d="M218.19 277.52a3.04 3.04 0 1 1 3.37 3.02l-.23 25.77a3.04 3.04 0 0 1-.02 6.02v27.18a3.04 3.04 0 0 1 2.22 4.58l21.69 12.45a3.03 3.03 0 0 1 1.99-1.22v-24.96a3.04 3.04 0 0 1 .36-6.05 3.04 3.04 0 0 1 .37 6.05v24.93c.94.09 1.76.6 2.26 1.35l21.38-10.68a3.04 3.04 0 0 1 5.41-2.7l.12-.07.33.66-.24.11a3.05 3.05 0 0 1-2.98 3.55c-.87 0-1.65-.37-2.2-.95l-21.5 10.74a3.03 3.03 0 0 1-4.97 3.17l-23.56 13.93a3.02 3.02 0 0 1-2.77 4.25 3.04 3.04 0 1 1 2.4-4.88l23.47-13.87a3.02 3.02 0 0 1-.23-2.72l-21.8-12.5a3.02 3.02 0 0 1-4.61-.44l-22.9 12a3.02 3.02 0 1 1-5.65-.04l-23.15-12.6a3.03 3.03 0 0 1-5.5-1.75 3.04 3.04 0 0 1 2.67-3.02v-26.32a3.04 3.04 0 0 1 0-6.02v-26.32a3.04 3.04 0 0 1 .37-6.05c.99 0 1.87.49 2.43 1.23l23.31-13.31a3.02 3.02 0 0 1 0-2.33l-23.3-13.1a3.02 3.02 0 0 1-4.86.03l-23.05 13.31a3.02 3.02 0 0 1-2.79 4.22 3.04 3.04 0 1 1 2.43-4.85L161.5 246a3.02 3.02 0 0 1 2.79-4.22 3.04 3.04 0 0 1 2.8 4.19l23.3 13.1a3.02 3.02 0 0 1 5.47 1.8 3.04 3.04 0 0 1-2.68 3l-.08 26.72a3.04 3.04 0 0 1 2.43 4.16l22.96 12.79a3.03 3.03 0 0 1 2.11-1.24l.22-25.77a3.04 3.04 0 0 1-2.63-3zm-50.88-.36a3.04 3.04 0 0 1-2.66 3.01v26.32c.85.1 1.6.56 2.08 1.22l23.19-12.96a3.02 3.02 0 0 1 2.44-4.16l.09-26.72a3.03 3.03 0 0 1-2.05-1.2L167.08 276c.15.36.23.75.23 1.17zm25.41 77.12c1.03 0 1.95.52 2.5 1.31l22.89-12a3.02 3.02 0 0 1 2.46-4.08v-27.18a3.04 3.04 0 0 1-2.44-4.15l-22.96-12.8a3.02 3.02 0 0 1-4.9.01l-23.18 12.96a3.02 3.02 0 0 1-2.44 4.16v26.32a3.04 3.04 0 0 1 2.45 4.13l23.15 12.6a3.03 3.03 0 0 1 2.47-1.28zm-56.79 136.27c-.96 0-1.83-.45-2.38-1.16l-22.28 13.52a3.04 3.04 0 0 1-5.22 3.08l-24.52 13.96a3.04 3.04 0 1 1-.36-.64l24.57-14a3.02 3.02 0 0 1-.13-.66l-24.59-14.48a3.02 3.02 0 0 1-4.72.09l-22.88 13.48a3.02 3.02 0 0 1 .36 1.66 3.04 3.04 0 0 1-2.66 3v26.29a3.04 3.04 0 0 1 2.66 3.12 3.04 3.04 0 0 1-5.52 1.72l-21.42 12.13a3.04 3.04 0 0 1-2.36 4.33v26.28a3.04 3.04 0 0 1 2.53 3.88l21.45 14.37a3.02 3.02 0 0 1 5.32 1.98 3.04 3.04 0 0 1-2.66 3v27c1.08.13 1.98.83 2.4 1.79l.12-.06.33.65-.23.12a3.05 3.05 0 0 1-2.99 3.55c-.86 0-1.65-.37-2.2-.96l-21.49 10.75a3.02 3.02 0 0 1-2.58 4.04l.09 28.46a3.04 3.04 0 0 1-.46 6.04 3.04 3.04 0 0 1-.28-6.06l-.08-28.47a3.04 3.04 0 0 1-2.35-4.13l-21.8-12.5a3.02 3.02 0 0 1-5.15-2.16 3.04 3.04 0 0 1 2.66-3.02v-27.17a3.04 3.04 0 0 1 .37-6.05c1 0 1.88.49 2.43 1.24l21.4-12.12a3.02 3.02 0 0 1 2.43-4.17v-26.28a3.04 3.04 0 0 1-2.36-4.33L-.19 537.79a3.02 3.02 0 0 1-4.76-.13l-22.9 13.07a3.02 3.02 0 0 1-2.79 4.2 3.04 3.04 0 0 1-2.8-4.18l-23.3-13.1a3.02 3.02 0 0 1-5.47-1.8 3.04 3.04 0 0 1 2.66-3.01v-26.75a3.04 3.04 0 0 1-2.63-2.56 3.02 3.02 0 0 1-.5-2.08l-22.86-13.47a3.03 3.03 0 1 1-2.93-4.63v-26.32a3.04 3.04 0 0 1 0-6.03v-26.32a3.04 3.04 0 0 1 .37-6.04c1 0 1.88.48 2.43 1.22l23.32-13.31a3.02 3.02 0 0 1-.01-2.33l-23.3-13.1a3.02 3.02 0 0 1-5.47-1.8 3.04 3.04 0 0 1 2.66-3v-27.1a3.04 3.04 0 0 1-2.35-4.09l-22.67-12.03a3.03 3.03 0 0 1-5.51-1.74 3.04 3.04 0 0 1 2.66-3.01v-27a3.04 3.04 0 0 1 .37-6.04c1 0 1.89.49 2.44 1.24l22.8-12.81a3.02 3.02 0 0 1 2.37-4.3v-26.45a3.04 3.04 0 0 1-2.42-4.2l-22.78-13.3a3.02 3.02 0 0 1-5.44-1.83 3.04 3.04 0 0 1 2.66-3.02v-26.6a3.04 3.04 0 0 1 .37-6.04 3.04 3.04 0 0 1 .36 6.05v26.6a3.04 3.04 0 0 1 2.42 4.2l22.78 13.3a3.03 3.03 0 0 1 2.05-1.18v-27a3.04 3.04 0 0 1 .36-6.04 3.04 3.04 0 0 1 .37 6.05v26.99a3.04 3.04 0 0 1 0 6.02v26.44a3.04 3.04 0 0 1 2.64 3.35l22.85 13.7a3.02 3.02 0 0 1 5.42 1.86 3.04 3.04 0 0 1-2.66 3.02v26.32a3.04 3.04 0 0 1 2.45 4.12l23.15 12.6a3.03 3.03 0 0 1 4.96.04l22.9-12a3.02 3.02 0 0 1 2.46-4.1v-27.17a3.04 3.04 0 0 1 .37-6.05 3.04 3.04 0 0 1 .37 6.05v27.18a3.04 3.04 0 0 1 2.22 4.59l21.69 12.44a3.03 3.03 0 0 1 4.98.1l21.38-10.68a3.04 3.04 0 0 1 2.28-4.5v-26.99a3.04 3.04 0 0 1 .36-6.04c1 0 1.89.48 2.44 1.24l22.8-12.82a3.04 3.04 0 1 1 .4.62l-22.84 12.84a3.02 3.02 0 0 1-2.44 4.16v27c1.08.13 1.99.82 2.4 1.78l.13-.06.32.66-.23.12a3.05 3.05 0 0 1-.15 1.6l22.66 12.03a3.03 3.03 0 0 1 2.12-1.28v-25.28a3.04 3.04 0 0 1 .36-6.05 3.04 3.04 0 0 1 .37 6.05v25.28a3.04 3.04 0 0 1 .46 5.94v27.17a3.04 3.04 0 0 1 2.44 4.17L105.57 406a3.04 3.04 0 1 1 .37 2.45l-24.52 14a3.02 3.02 0 0 1-2.43 4.18v26.32a3.04 3.04 0 0 1 0 6.03v26.31a3.04 3.04 0 0 1 2.4 4.24l24.26 14.28a3.04 3.04 0 0 1 5.18-1.5l22.34-13.55a3.04 3.04 0 0 1 2.4-4.26v-26.32a3.04 3.04 0 0 1 0-6.03v-26.32a3.04 3.04 0 0 1 .36-6.04 3.04 3.04 0 0 1 .37 6.04v26.32a3.04 3.04 0 0 1 0 6.03v26.32a3.04 3.04 0 0 1 2.5 3.96l22.75 13.4a3.04 3.04 0 0 1 2.45-1.9l.1-24.94a3.04 3.04 0 0 1 .37-6.05 3.04 3.04 0 0 1 .36 6.05l-.1 24.95a3.04 3.04 0 0 1 2.63 2.56 3.04 3.04 0 0 1-2.14 4.71V534a3.04 3.04 0 0 1 2.43 4.16l23.3 13.1a3.02 3.02 0 0 1 5.47 1.8 3.04 3.04 0 0 1-2.67 3.01l-.09 26.72a3.04 3.04 0 0 1-.37 6.05c-1 0-1.9-.5-2.45-1.25l-23.19 12.96a3.04 3.04 0 0 1-5.21 2.99l-23.06 13.52a3.02 3.02 0 0 1-2.41 4.22v25.28a3.04 3.04 0 0 1-.1 6.04v27.07a3.04 3.04 0 0 1-.37 6.05 3.04 3.04 0 0 1-.37-6.05v-27.1a3.04 3.04 0 0 1-2.36-4.08l-22.66-12.04a3.03 3.03 0 0 1-5.52-1.74 3.04 3.04 0 1 1 5.86 1.1l22.67 12.03a3.03 3.03 0 0 1 2.11-1.28v-25.28a3.04 3.04 0 0 1 .37-6.05c.98 0 1.85.47 2.4 1.2l23.07-13.53a3.02 3.02 0 0 1 2.42-4.22v-26.31a3.04 3.04 0 0 1 .36-6.05c1 0 1.88.48 2.43 1.22l23.32-13.3a3.03 3.03 0 0 1 0-2.34l-23.3-13.1a3.02 3.02 0 0 1-4.87.03l-23.04 13.32a3.04 3.04 0 1 1-3.15-1.83v-26.99a3.04 3.04 0 0 1 .36-6.05c1 0 1.88.49 2.43 1.23l23.03-13.1c-.1-.23-.17-.47-.2-.72a3.02 3.02 0 0 1-.5-2.08l-22.87-13.47a3.03 3.03 0 0 1-2.56 1.41zm3.1 60.96l23.03-13.31a3.02 3.02 0 0 1 2.43-4.2v-26.75a3.03 3.03 0 0 1-2.07-1.2l-23.02 13.1a3.04 3.04 0 0 1-2.43 4.18v27c.83.1 1.57.54 2.05 1.18zm-63.43-63.2a3.04 3.04 0 0 1 2.66-3v-26.32a3.04 3.04 0 0 1-2.4-4.25L53.2 441.16a3.03 3.03 0 0 1-5.34.6l-21.89 12.3a3.02 3.02 0 0 1-1.99 4.93v26.99a3.04 3.04 0 0 1 2.06 4.83l21.7 11.53a3.03 3.03 0 0 1 5.53.63l22.63-13.33c-.2-.4-.3-.85-.3-1.32zm-135.63 10.5l.1-24.94a3.04 3.04 0 0 1 .37-6.04 3.04 3.04 0 0 1 .35 6.05l-.09 24.94a3.04 3.04 0 0 1 2.6 2.44l22.65-12.68a3.04 3.04 0 1 1 .45.59l-22.78 12.76a3.02 3.02 0 0 1-2.43 4.16v26.75a3.04 3.04 0 0 1 2.43 4.16l23.3 13.1a3.03 3.03 0 0 1 4.87 0l22.9-13.08a3.04 3.04 0 0 1 2.43-4.19l-.01-26.63a3.04 3.04 0 0 1 .37-6.05 3.04 3.04 0 0 1 .36 6.05v26.64a3.04 3.04 0 0 1 2.36 4.33l21.58 13.87c.43-.52 1.03-.9 1.71-1.03l.23-26.02a3.04 3.04 0 0 1 .39-6.05c.98 0 1.85.47 2.4 1.2l21.41-12.67a3.02 3.02 0 0 1-.2-1.15 3.02 3.02 0 0 1-.26-2.3l-21.95-11.66a3.04 3.04 0 1 1-2.26-5.38v-27a3.04 3.04 0 1 1 2.17-5.44l22.1-12.43a3.03 3.03 0 0 1 2.49-4.05v-26.44a3.04 3.04 0 0 1-2.52-3.94L25.58 393.9a3.04 3.04 0 1 1-2.31-5.27l-.08-28.46a3.04 3.04 0 0 1-2.36-4.14l-21.8-12.5a3.02 3.02 0 0 1-4.61-.44l-22.9 12a3.03 3.03 0 0 1-2.6 4.1v27.13a3.04 3.04 0 0 1-.37 6.05c-.99 0-1.87-.48-2.43-1.22l-22.89 13.07a3.02 3.02 0 0 1-2.43 4.18l-.1 26.72a3.04 3.04 0 0 1-.37 6.04c-1 0-1.9-.49-2.44-1.24l-23.19 12.96a3.02 3.02 0 0 1-2.43 4.16v26.32a3.04 3.04 0 0 1 2.5 3.96l22.75 13.4a3.04 3.04 0 0 1 2.45-1.9zm83.77 147.54V621.4a3.04 3.04 0 0 1 .37-6.05c1.25 0 2.32.76 2.78 1.84l21.13-13.4a3.02 3.02 0 0 1 .03-2.66l-21.34-14.3a3.03 3.03 0 0 1-5.04.25L.27 599.2a3.04 3.04 0 0 1-2.43 4.17v27.18a3.04 3.04 0 0 1 2.22 4.6l21.7 12.44a3.03 3.03 0 0 1 1.98-1.23zm3 1.33l21.37-10.69a3.04 3.04 0 0 1 2.28-4.5v-26.98c-.8-.1-1.5-.5-1.98-1.1l-21.3 13.51a3.05 3.05 0 0 1-2.63 3.48v24.93c.94.08 1.76.6 2.25 1.35zM47.72 537.7a3.04 3.04 0 0 1 2.66-3.01V508.4c-.88-.1-1.64-.6-2.12-1.29l-21.39 12.64a3.04 3.04 0 0 1-2.43 4.23l-.22 25.96c.88.03 1.67.45 2.2 1.09l21.5-12.16a3.02 3.02 0 0 1-.2-1.18zm5.06-131.91l23.05-13.32a3.04 3.04 0 0 1 2.42-4.2v-27.06a3.08 3.08 0 0 1-2.17-.83l-22.92 13.04a3.02 3.02 0 0 1-2.43 4.18v27c.84.1 1.57.54 2.05 1.19zm-5.44-31.2a3.04 3.04 0 0 1 5.46-1.8l22.8-12.98a3.02 3.02 0 0 1-.27-2.72l-22.67-12.04a3.03 3.03 0 0 1-4.68.35l-21.5 10.74a3.03 3.03 0 0 1-2.57 4.04l.08 28.47a3.04 3.04 0 0 1 2.06 4.68L47.8 406a3.03 3.03 0 0 1 2.2-1.41v-27a3.04 3.04 0 0 1-2.65-3zm30.9 78.37v-26.32a3.04 3.04 0 0 1 .38-6.05c.99 0 1.87.49 2.42 1.23l24.57-14.03a3.03 3.03 0 0 1-.16-1l-24.4-13.71a3.02 3.02 0 0 1-4.86.03l-23.04 13.31a3.02 3.02 0 0 1-2.42 4.2v26.44a3.04 3.04 0 0 1 2.64 3.35l22.85 13.7a3.03 3.03 0 0 1 2.03-1.15zm89.63 116.4a3.04 3.04 0 0 1-2.66 3v26.32c.85.1 1.6.57 2.08 1.23l23.18-12.96a3.03 3.03 0 0 1 2.45-4.16l.09-26.72a3.03 3.03 0 0 1-2.06-1.2l-23.32 13.31c.16.36.24.76.24 1.17zm53.63 68.39a3.03 3.03 0 0 1-2.5-1.31l-22.9 12a3.03 3.03 0 0 1-2.6 4.1v27.13a3.04 3.04 0 0 1 2.37 4.33l21.57 13.87c.43-.52 1.03-.89 1.72-1.03l.22-26.02a3.04 3.04 0 0 1 .4-6.04c.97 0 1.84.46 2.4 1.18l23.46-13.87a3.02 3.02 0 0 1-.22-2.71l-21.8-12.5c-.54.53-1.3.87-2.12.87zm1.3 62.06a3.04 3.04 0 1 1-5.75-1.32l-21.58-13.87a3.02 3.02 0 0 1-5.36-1.94 3.04 3.04 0 0 1 2.66-3.01V652.5a3.02 3.02 0 0 1-1.69-.9l-23.36 13.23a3.04 3.04 0 1 1-.36-.64L190.65 651a3.04 3.04 0 0 1 2.27-4.51l.1-24.95a3.04 3.04 0 0 1 .37-6.04 3.04 3.04 0 0 1 .36 6.05l-.1 24.94c.88.1 1.65.6 2.13 1.29l22.9-12a3.03 3.03 0 1 1 5.41.5l21.7 12.45a3.03 3.03 0 0 1 1.98-1.23v-24.95a3.04 3.04 0 0 1 .37-6.05c1.25 0 2.32.76 2.78 1.84l21.13-13.4a3.04 3.04 0 0 1 2.1-4.27l.24-27.95a3.04 3.04 0 0 1 .4-6.04 3.04 3.04 0 0 1 .33 6.05l-.24 27.88a3.04 3.04 0 0 1 .27 6.05v26.99c1.08.13 1.98.83 2.4 1.79l.12-.06.33.65-.23.12a3.05 3.05 0 0 1-2.99 3.55c-.86 0-1.65-.37-2.2-.96L251.1 649.5a3.03 3.03 0 0 1-2.58 4.04l.09 28.47a3.04 3.04 0 0 1 2.06 4.68l21.74 12.69a3.03 3.03 0 0 1 2.2-1.42v-27a3.04 3.04 0 0 1 .37-6.04 3.04 3.04 0 0 1 .37 6.05v27a3.04 3.04 0 0 1-.37 6.04 3.04 3.04 0 0 1-2.88-3.97l-21.92-12.78a3.01 3.01 0 0 1-4.3-.24l-23.3 11.62c.16.36.24.76.24 1.18zm22.3-14.8a3.04 3.04 0 0 1 2.75-3.03l-.08-28.47c-.64-.1-1.22-.4-1.67-.84l-23.55 13.92a3.04 3.04 0 0 1-2.43 4.23l-.23 25.96c.94.03 1.78.5 2.3 1.21l23.25-11.6c-.22-.41-.34-.89-.34-1.39zm5.65-36.17l21.38-10.69a3.04 3.04 0 0 1 2.28-4.5v-26.98c-.8-.1-1.5-.5-1.98-1.1l-21.3 13.51a3.05 3.05 0 0 1-2.63 3.48v24.93c.94.08 1.76.6 2.25 1.35zm-310.7-246.47l-.08-26.72a3.04 3.04 0 0 1 .35-6.05c1 0 1.89.49 2.44 1.24l23.29-13.19a3.02 3.02 0 0 1-.19-2.6l-23.15-12.6a3.03 3.03 0 0 1-4.92 0l-22.98 12.64a3.02 3.02 0 0 1-2.55 4.15v27.07a3.04 3.04 0 0 1 2.43 4.17l23.3 13.1a3.03 3.03 0 0 1 2.06-1.21zm-25.13 19.3a3.04 3.04 0 0 1-2.66 3.01V451c.85.1 1.6.57 2.08 1.23l23.18-12.96a3.02 3.02 0 0 1 2.45-4.16l.08-26.72a3.03 3.03 0 0 1-2.05-1.2l-23.32 13.31c.15.36.24.76.24 1.17zm27.94-18.1l22.89-13.07a3.02 3.02 0 0 1 2.43-4.18v-27.17a3.02 3.02 0 0 1-1.7-.9l-23.36 13.22a3.02 3.02 0 0 1-2.42 4.18l.09 26.71c.84.1 1.58.56 2.07 1.2zm-55.81-62.2c0 .37-.07.74-.2 1.08l22.66 12.03a3.03 3.03 0 0 1 2.12-1.27v-25.28a3.04 3.04 0 1 1 2.77-4.85l23.07-13.53a3.02 3.02 0 0 1 0-2.44l-22.65-13.58a3.03 3.03 0 0 1-5.18.83l-22.82 12.83a3.02 3.02 0 0 1-2.44 4.17v26.99a3.04 3.04 0 0 1 2.67 3.01zm27.4 13.08l22.98-12.63a3.02 3.02 0 0 1 2.45-4.14v-26.32a3.03 3.03 0 0 1-2.04-1.18l-23.07 13.53a3.04 3.04 0 0 1-2.41 4.22v25.28c.86.1 1.61.57 2.1 1.24z"/></defs><g><g opacity=".15" transform="translate(119 -208)"><use xlink:href="#ui3ta"/></g></g></svg>