<svg xmlns="http://www.w3.org/2000/svg" xmlns:xlink="http://www.w3.org/1999/xlink" viewBox="0 0 165.49 148.83"><defs><style>.cls-1,.cls-33{fill:none;}.cls-2{fill:#eff5f9;}.cls-3{fill:#dfedf7;}.cls-4,.cls-6{fill:#f85e0a;}.cls-4,.cls-5{opacity:0.1;}.cls-7{opacity:0.22;fill:url(#linear-gradient);}.cls-8{fill:#f3eff5;}.cls-9{fill:url(#linear-gradient-2);}.cls-10{fill:url(#linear-gradient-3);}.cls-11,.cls-13{fill:#a0c7f0;}.cls-11{opacity:0.63;}.cls-12,.cls-19,.cls-27,.cls-29{fill:#fff;}.cls-12{opacity:0.31;}.cls-13{opacity:0.69;}.cls-14{fill:url(#linear-gradient-4);}.cls-15{isolation:isolate;}.cls-16{fill:url(#linear-gradient-5);}.cls-17{opacity:0.19;}.cls-18{fill:url(#linear-gradient-6);}.cls-20{clip-path:url(#clip-path);}.cls-21{fill:url(#linear-gradient-7);}.cls-22{fill:url(#linear-gradient-8);}.cls-23{clip-path:url(#clip-path-2);}.cls-24{fill:url(#linear-gradient-9);}.cls-25{fill:#e8f4f9;}.cls-26{fill:#c0cedd;}.cls-27{opacity:0.51;}.cls-28{fill:url(#linear-gradient-10);}.cls-29{opacity:0.54;}.cls-30,.cls-31,.cls-32{opacity:0.85;}.cls-30{fill:url(#linear-gradient-11);}.cls-31{fill:url(#linear-gradient-12);}.cls-32{fill:url(#linear-gradient-13);}.cls-33{stroke:#62bcff;stroke-miterlimit:10;stroke-width:0.5px;opacity:0.39;}</style><linearGradient id="linear-gradient" x1="-2650.38" y1="135.74" x2="-2641.59" y2="115.33" gradientTransform="matrix(-1, 0, 0, 1, -2524.5, 0)" gradientUnits="userSpaceOnUse"><stop offset="0" stop-color="#fff" stop-opacity="0"/><stop offset="0.37" stop-color="#c4dffa" stop-opacity="0.29"/><stop offset="1" stop-color="#3791ef"/></linearGradient><linearGradient id="linear-gradient-2" x1="8.86" y1="66.51" x2="67.54" y2="66.51" gradientUnits="userSpaceOnUse"><stop offset="0" stop-color="#fcdb21"/><stop offset="1" stop-color="#ff8340"/></linearGradient><linearGradient id="linear-gradient-3" x1="-2608.4" y1="71.12" x2="-2608.4" y2="71.12" gradientTransform="matrix(-1, 0, 0, 1, -2524.5, 0)" gradientUnits="userSpaceOnUse"><stop offset="0.31" stop-color="#3db9dd"/><stop offset="1" stop-color="#425eaa"/></linearGradient><linearGradient id="linear-gradient-4" y1="32.56" x2="7.35" y2="32.56" gradientUnits="userSpaceOnUse"><stop offset="0" stop-color="#6ac2ff"/><stop offset="1" stop-color="#1b9cff"/></linearGradient><linearGradient id="linear-gradient-5" x1="23.73" y1="64.42" x2="38.76" y2="64.42" xlink:href="#linear-gradient-2"/><linearGradient id="linear-gradient-6" x1="38.43" y1="64.84" x2="52.68" y2="64.84" gradientUnits="userSpaceOnUse"><stop offset="0" stop-color="#fcdb21"/><stop offset="1" stop-color="#ff9a40"/></linearGradient><clipPath id="clip-path"><polygon class="cls-1" points="48.9 66.4 48.78 60.03 43.34 63.29 43.46 69.66 48.9 66.4"/></clipPath><linearGradient id="linear-gradient-7" x1="3.82" y1="31.97" x2="9.94" y2="31.97" xlink:href="#linear-gradient-4"/><linearGradient id="linear-gradient-8" x1="11.7" y1="32.15" x2="17.5" y2="32.15" gradientUnits="userSpaceOnUse"><stop offset="0" stop-color="#6ac2ff"/><stop offset="1" stop-color="#1b87ff"/></linearGradient><clipPath id="clip-path-2"><polygon class="cls-1" points="15.96 32.78 15.91 30.18 13.7 31.51 13.74 34.11 15.96 32.78"/></clipPath><linearGradient id="linear-gradient-9" x1="142.33" y1="41.77" x2="149.38" y2="55.04" gradientTransform="translate(-30.78)" xlink:href="#linear-gradient-4"/><linearGradient id="linear-gradient-10" x1="-2318.87" y1="62.8" x2="-2293.63" y2="62.8" gradientTransform="matrix(-1, 0, 0, 1, -2232.8, 0)" xlink:href="#linear-gradient-6"/><linearGradient id="linear-gradient-11" x1="-325.68" y1="-48.06" x2="-311.59" y2="-48.06" gradientTransform="translate(333.33 111.72) rotate(4.49)" gradientUnits="userSpaceOnUse"><stop offset="0" stop-color="#54bff6"/><stop offset="1" stop-color="#3791ef"/></linearGradient><linearGradient id="linear-gradient-12" x1="-324.84" y1="-43.47" x2="-310.76" y2="-43.47" xlink:href="#linear-gradient-11"/><linearGradient id="linear-gradient-13" x1="-324.12" y1="-37.14" x2="-314.94" y2="-37.14" xlink:href="#linear-gradient-11"/></defs><title>Technology Suite</title><g id="Layer_2" data-name="Layer 2"><g id="Layer_1-2" data-name="Layer 1"><path class="cls-2" d="M1.15,27.9,26.89,15.76a2.39,2.39,0,0,1,3.51,2.11v30.3L10.27,59.11a2.48,2.48,0,0,1-3.72-2.22l.5-19.46"/><path class="cls-3" d="M13.94,57h0c2.38,1.75,3.56,2.48,3.56,5.44l.2,27.26a2.79,2.79,0,0,0,4.15,2.42l4.77-2.67,8.83-5.33.07-35.85c-.14-1.61-2-1.83-3.43-1Z"/><circle class="cls-4" cx="138.95" cy="62.26" r="0.98" transform="matrix(0.05, -1, 1, 0.05, 70.35, 198.2)"/><g class="cls-5"><rect class="cls-6" x="131.94" y="52.71" width="0.69" height="10.87" transform="translate(12.77 139.37) rotate(-57.93)"/></g><polygon class="cls-7" points="141.96 104.32 165.49 113.46 102.9 148.83 77.05 136.61 141.96 104.32"/><path class="cls-8" d="M29.28,57.49v50.67a.81.81,0,0,0,1.17.72l63.9-32.71a.81.81,0,0,0,.44-.72V24.29a.81.81,0,0,0-1.16-.72l-62.54,31A3.26,3.26,0,0,0,29.28,57.49Zm3.58,45.67V57.75a.81.81,0,0,1,.45-.72L90.38,29a.81.81,0,0,1,1.16.72V73.94a.81.81,0,0,1-.44.72L34,103.88A.81.81,0,0,1,32.86,103.16Z"/><path class="cls-9" d="M91.54,74.44V29.89a.9.9,0,0,0-1.3-.81L32.86,57.25v46.09a.7.7,0,0,0,1,.62Z"/><path class="cls-10" d="M83.9,71.12"/><polygon class="cls-11" points="94.8 75.94 143.14 100.56 76.56 133.52 29.17 109.53 94.8 75.94"/><path class="cls-12" d="M126.17,92.06l17,8.49L77.75,132.93a2.69,2.69,0,0,1-2.38,0l-15-7.45Z"/><path class="cls-13" d="M93.91,23.48l-1.74-.56a5.17,5.17,0,0,0-3.31.73L27.94,53a2.35,2.35,0,0,0-1.32,2.11v54.61a2,2,0,0,0,1.09,1.78L75.76,136.3a2.11,2.11,0,0,0,1.91,0l64.29-32a2.14,2.14,0,0,0,1.18-1.91v-1.85L77.56,133a2.22,2.22,0,0,1-2,0L29.28,109.59V58A4.28,4.28,0,0,1,30.36,55l0,0a1.51,1.51,0,0,1,.44-.32Z"/><path class="cls-13" d="M103.24,104l16.28,8.21-18,8.85L87.6,112.85a.71.71,0,0,1,0-1.24l15-7.59A.71.71,0,0,1,103.24,104Z"/><path class="cls-14" d="M7.18,38.07,0,36.53V30.29a3.38,3.38,0,0,1,3.53-3.23l.76,0a3.21,3.21,0,0,1,3.07,3.27Z"/><g class="cls-15"><path class="cls-16" d="M45.14,56a13.68,13.68,0,0,0-3.75,3.25c-3.59,4.36-4.8,10.22-2.72,13.09,1.4,1.92,3.93,2,6.52.55a13.67,13.67,0,0,0,3.75-3.25c3.59-4.36,4.8-10.22,2.72-13.09-1.4-1.92-3.93-2-6.53-.54"/></g><g class="cls-17"><g class="cls-15"><path class="cls-18" d="M45.53,56.66A13.06,13.06,0,0,0,42,59.81C38.57,64,37.42,69.72,39.4,72.5c1.33,1.86,3.73,2,6.19.53a13.06,13.06,0,0,0,3.55-3.15c3.4-4.23,4.56-9.91,2.58-12.69-1.33-1.86-3.73-2-6.19-.53"/></g></g><path class="cls-19" d="M47.72,62.82s.18-.08.16.22-.15.58-.34.46S47.72,62.82,47.72,62.82Z"/><path class="cls-19" d="M45.07,63.68a.25.25,0,0,0-.24.31c0,.3.17.57.35.45S45.07,63.68,45.07,63.68Z"/><g class="cls-15"><g class="cls-20"><path class="cls-19" d="M46.35,61.48l.13-.07h0c.49-.24.59.09.65.12.45.18.61,1,.61,1h0a4.84,4.84,0,0,1-.54,1.93,1.09,1.09,0,0,0-.16.43c.07.31.55.26.95.21a2.07,2.07,0,0,1,.47,0c.55.06.41,1.15.41,1.19a.37.37,0,0,1-.16.25h0l-5.12,2.56c-.08,0-.14,0-.15-.1A2.54,2.54,0,0,1,44,67.3a5.93,5.93,0,0,1,.49-.44,3.16,3.16,0,0,0,1-1.19s0-.21-.12-.29A2,2,0,0,1,45,63.9h0a4,4,0,0,1,.62-1.74,2.26,2.26,0,0,1,.7-.67"/></g></g><path class="cls-19" d="M47.72,62.82s.15-.68-.25-.85-.1-.52-.4-.63c-.5-.19-.27-.17-.68-.24s-1.22.65-1.29,1-.21.15-.21.49-.61.77.14,1.16S47.72,62.82,47.72,62.82Z"/><g class="cls-15"><path class="cls-21" d="M14.43,28.53a5.57,5.57,0,0,0-1.53,1.32c-1.46,1.78-2,4.16-1.11,5.33.57.78,1.6.82,2.66.22A5.57,5.57,0,0,0,16,34.09c1.46-1.78,2-4.16,1.11-5.33-.57-.78-1.6-.82-2.66-.22"/></g><g class="cls-15"><path class="cls-22" d="M14.59,28.81a5.32,5.32,0,0,0-1.45,1.28c-1.39,1.72-1.86,4-1,5.17.54.76,1.52.79,2.52.22a5.32,5.32,0,0,0,1.45-1.28c1.39-1.72,1.86-4,1-5.17-.54-.76-1.52-.79-2.52-.21"/></g><path class="cls-19" d="M15.48,31.32s.08,0,.07.09-.06.24-.14.19S15.48,31.32,15.48,31.32Z"/><path class="cls-19" d="M14.4,31.67a.1.1,0,0,0-.1.13c0,.12.07.23.14.18S14.4,31.67,14.4,31.67Z"/><g class="cls-15"><g class="cls-23"><path class="cls-19" d="M14.92,30.78l.05,0h0c.2-.1.24,0,.27.05.18.07.25.39.25.41h0a2,2,0,0,1-.22.78.45.45,0,0,0-.06.17c0,.13.23.11.39.09h.19c.22,0,.17.47.17.48a.15.15,0,0,1-.06.1h0l-2.08,1s-.06,0-.06,0a1,1,0,0,1,.23-.68l.2-.18a1.29,1.29,0,0,0,.42-.49s0-.09,0-.12a.81.81,0,0,1-.15-.6h0a1.64,1.64,0,0,1,.25-.71.92.92,0,0,1,.29-.27"/></g></g><path class="cls-19" d="M15.48,31.32s.06-.28-.1-.35,0-.21-.16-.26-.11-.07-.28-.1-.5.27-.53.42-.09.06-.09.2-.25.31.06.47S15.48,31.32,15.48,31.32Z"/><g class="cls-5"><rect class="cls-6" x="120.47" y="31.43" width="0.69" height="17.75"/></g><g class="cls-5"><rect class="cls-6" x="135.7" y="4.35" width="0.69" height="9.31"/></g><circle class="cls-4" cx="120.81" cy="29.28" r="0.98" transform="translate(86 148.62) rotate(-87.36)"/><circle class="cls-4" cx="107.98" cy="20.91" r="0.98" transform="translate(82.13 127.81) rotate(-87.36)"/><circle class="cls-4" cx="136.04" cy="16.89" r="0.98"/><circle class="cls-4" cx="136.04" cy="1.11" r="0.98"/><g class="cls-5"><rect class="cls-6" x="113.8" y="19.73" width="0.69" height="10.87" transform="translate(32.21 108.53) rotate(-57.93)"/></g><rect class="cls-4" x="120.73" y="22.93" width="15.12" height="0.69" transform="translate(14.18 86.34) rotate(-39.21)"/><g class="cls-5"><rect class="cls-6" x="93.04" y="26.32" width="15.13" height="0.69" transform="translate(5.42 68.75) rotate(-38.69)"/></g><path id="_Path_" data-name="&lt;Path&gt;" class="cls-13" d="M113.55,36.56l.59-.27a2.82,2.82,0,0,1,3,0l9.6,5.66a3.89,3.89,0,0,1,1.89,3.39l-.39,31a2.12,2.12,0,0,1-.85,1.68l-.81.6"/><path id="_Path_2" data-name="&lt;Path&gt;" class="cls-24" d="M124.25,78.76l-9.87-6a4.34,4.34,0,0,1-1.91-3.65l.39-31.2a1.67,1.67,0,0,1,2.52-1.42l10,5.88a4.63,4.63,0,0,1,2.12,4.26l-.38,30.5A1.81,1.81,0,0,1,124.25,78.76Z"/><path id="_Compound_Path_" data-name="&lt;Compound Path&gt;" class="cls-25" d="M125.37,42.35l-10-5.88a1.7,1.7,0,0,0-2.56,1.42l-.39,31.2a4.34,4.34,0,0,0,1.92,3.65l9.9,6a1.82,1.82,0,0,0,2.86-1.65l.38-30.5A4.63,4.63,0,0,0,125.37,42.35Zm.13,31.56-11.68-7,.32-25.76,11.68,6.73Z"/><g id="_Group_" data-name="&lt;Group&gt;"><path class="cls-26" d="M119.57,74.39a1.34,1.34,0,0,1-.54-.12,2.65,2.65,0,0,1-1.44-2.09.95.95,0,0,1,1.43-1,2.65,2.65,0,0,1,1.44,2.09,1,1,0,0,1-.39,1A.86.86,0,0,1,119.57,74.39Zm-1.09-3a.53.53,0,0,0-.31.09.72.72,0,0,0-.24.66,2.31,2.31,0,0,0,1.24,1.8.61.61,0,0,0,.95-.66,2.11,2.11,0,0,0-.39-1.05h0a2.12,2.12,0,0,0-.85-.74A1,1,0,0,0,118.47,71.4Z"/></g><g id="_Group_2" data-name="&lt;Group&gt;"><path class="cls-26" d="M119.36,73.57a.22.22,0,0,1-.12,0l-.67-.42a.22.22,0,0,1-.1-.19v-.7a.22.22,0,0,1,.33-.19l.67.38a.22.22,0,0,1,.11.19v.73a.22.22,0,0,1-.11.19Zm-.54-.7.42.26v-.44l-.42-.24Zm0,.07h0Zm-.06-.11h0Zm.55-.1h0Z"/></g><g id="_Group_3" data-name="&lt;Group&gt;"><rect class="cls-26" x="119.68" y="40.48" width="0.29" height="3.92" transform="translate(22.78 124.55) rotate(-59.74)"/></g><path class="cls-27" d="M88.62,60.46V39.9a1.46,1.46,0,0,0-2.1-1.31L59.09,52.06a1.46,1.46,0,0,0-.81,1.31V74.5a1.46,1.46,0,0,0,2.12,1.3l27.43-14A1.46,1.46,0,0,0,88.62,60.46Z"/><path class="cls-28" d="M86.07,60s-.79-8.13-9-6.82a49.74,49.74,0,0,1-16.25-.44V72.88Z"/><path class="cls-29" d="M85.51,43.59v1a.25.25,0,0,1-.13.22l-.91.51a.25.25,0,0,1-.38-.22v-1a.25.25,0,0,1,.13-.22l.91-.53A.25.25,0,0,1,85.51,43.59Z"/><path class="cls-29" d="M85.65,46.53v1a.25.25,0,0,1-.13.22l-.91.51a.25.25,0,0,1-.38-.22v-1a.25.25,0,0,1,.13-.22l.91-.53A.25.25,0,0,1,85.65,46.53Z"/><path class="cls-29" d="M83.46,45.17v.46a.25.25,0,0,1-.13.22l-3,1.69a.25.25,0,0,1-.38-.22v-.44a.25.25,0,0,1,.13-.22l3-1.7A.25.25,0,0,1,83.46,45.17Z"/><path class="cls-29" d="M83.66,47.88v.46a.25.25,0,0,1-.13.22l-3,1.69a.25.25,0,0,1-.38-.22v-.44a.25.25,0,0,1,.13-.22l3-1.7A.25.25,0,0,1,83.66,47.88Z"/><path class="cls-27" d="M52.06,76.8v1.53a.84.84,0,0,1-.43.73l-10,5.63A.84.84,0,0,1,40.34,84V82.49a.84.84,0,0,1,.42-.73l10-5.69A.84.84,0,0,1,52.06,76.8Z"/><path class="cls-27" d="M88.12,67.77l0,1.53a.84.84,0,0,1-.45.72L61.11,83.67a.84.84,0,0,1-1.23-.77l0-1.47a.84.84,0,0,1,.44-.72L86.88,67A.84.84,0,0,1,88.12,67.77Z"/><path class="cls-30" d="M26.78,35.37l0,.52a.29.29,0,0,1-.17.24L12.51,42.58a.29.29,0,0,1-.41-.28l0-.5a.29.29,0,0,1,.16-.24l14.06-6.47A.29.29,0,0,1,26.78,35.37Z"/><path class="cls-31" d="M27.25,40l0,.52a.29.29,0,0,1-.17.24L13,47.23a.29.29,0,0,1-.41-.28l0-.5a.29.29,0,0,1,.16-.24l14.06-6.47A.29.29,0,0,1,27.25,40Z"/><path class="cls-32" d="M22.48,47.32l0,.52a.29.29,0,0,1-.17.24l-9,4.19A.29.29,0,0,1,12.9,52l0-.5a.29.29,0,0,1,.16-.24l9-4.21A.29.29,0,0,1,22.48,47.32Z"/><path class="cls-27" d="M52.68,85.64v1.53a.84.84,0,0,1-.43.73l-10,5.63A.84.84,0,0,1,41,92.8V91.33a.84.84,0,0,1,.42-.73l10-5.69A.84.84,0,0,1,52.68,85.64Z"/><polyline class="cls-33" points="26.62 79.11 21.63 81.72 21.63 62.8 26.62 60.03"/><line class="cls-33" x1="24.13" y1="61.41" x2="24.13" y2="80.1"/><line class="cls-33" x1="21.63" y1="66.51" x2="26.62" y2="63.85"/><line class="cls-33" x1="21.63" y1="70.64" x2="26.62" y2="67.97"/><line class="cls-33" x1="21.63" y1="74.76" x2="26.62" y2="72.1"/><line class="cls-33" x1="21.63" y1="78.89" x2="26.62" y2="76.23"/><circle class="cls-4" cx="133.69" cy="0.98" r="0.98"/></g></g></svg>